P1
200 200
1111111111111111111111111111111111111111111111111111111111111111111111111111111111111111111111111111111111111111111111111111111111111111111111111111111111111111111111111111111111111111111111111111111111111111111111111111111111111111111111111111111111111111111111111111111111111111111111111111111111111111111111111111111111111111111111111111111111111111111111111111111111111111111111111111111111111111111111111111111111111111111111111111111111111111111111111111111111111111111111111111111111111111111111111111111111111111111111111111111111111111111111111111111111111111111111111111111111111111111111111111111111111111111111111111111111111111111111111111111111111111111111111111111111111111111111111111111111111111111111111111111111111111111111111111111111111111111111111111111111111111111111111111111111111111111111111111111111111111111111111111111111111111111111110111111111111111111111111111111111111111111111111111111011111111111111111111111111111111111111111111111111111111111111111111111111111111111111111111111111111111111111111111111111111111111111111111110111111111111111111111111111111111111111111111111111111111111111111111111111111111111111111111111111111111111111111111111111111111111111111111111111111111111111111111111111111111111111111111111111111101111111111111111111111111111111111111111111111111111111111111111111111111111111111111111111111111111111111111111111111111111111111111111111111111111111111111111111111111111111111111111111111111111101111111111111111111111111111111111111111111111111111111111111111111111111111111111111111111111111111111111111111111111111111111111111111111111111111111111111111111111111111111111111111111111111111111101111111111111111111111111111111111111111111111111111111111011011111111111111111111111111111111111111111111111111111111111111111111111111111111111111111111111111111111111111111111111111111111111111011011111111111111111111111111111111111111111111111111111111111111111111111111111111111111111111111111111111111111111111111111111111111111111111111111111111111111111111111111111111111111111111111111111111111111111111111111111111111111111111111111111111111111111111101011111111111111111111111111111111111111111111111111111111111111111111111111111111111111111111111111111111111111111111111111111111110110111111111111111111111111111111111111111111111111111111111111111111111111111111111111111111111111111111111111111111111111111111111111111111111111111111111111111111111111111111111111111111111111111110110111111111111111111111111111111111111111111111111111111111111110011011111111111111111111111111111111111111111111111111111111111111111111111111111111111111111111111111111111111111111111111011011110010111111111111111111111111111111111111111111111111111111111111111111001111001111110110111111111111111111111111111111111111111111111111111111111111111111111111111111111111111111111101101111111110101010010011010101111111111111111111111111111111111111111111111111111010110011001111010110111110111111111111111111111111111111111111111111111111111111111111111111111111111111111111111111111111111111111101011111001010100101111111111111111111111111111111111111111110110101111110101111111111111111111111111111111111111111111111111111111111111111111111111111111111111111111111111111111111111111111111111111101111111101000000101011111111111111111111111111111111111100010010111111111011111111111111111111111111111111111111111111111111111111111111111111111111111111111111111111111111111111111111111111111111100111111111111101000100110111111111111111111111111111111010110111111011111111001111111111111111111111111111111111111111111111111111111111111111111111111111111111111111111111111111111111111111111111110111111111111111110111010001101111111111111111111111100000110011111111111111111111111111111111111111111111111111111111111111111111111111111111111111111111111111111111111111111111111111111111111111111101011111111111111111101000000011111111111111111111101101001011111111111111111110011111111111111111111111111111111111111111111111111111111111111111111111111111111111111111111111111111111111111111111110001111111111111111111111010001001111111111111111001000011111111111111111111111111011111111111111111111111111111111111111111111111111111111111111111111111111111111111111111111111111111111111111111110101111111111111111111111111111000000001111111111010010111111111111111111111111111101101111111111111111111111111111111111111111111111111111111111111111111111111111111111111111111111111111111111111111101111111111111111111111111111111010000011111111001000010111111111111111111111111111001111111111111111111111111111111111111111111111111111111111111111111111111111111111111111111111111111111111111111111000111111111111111111111111111111110100000011010000110111111111111111111111111111111100111111111111111111111111111111111111111111111111111111111111111111111111111111111111111111111111111111111111111111011111111111111111111111111111111100000001000000101111111111111111111111111111111111001111111111111111111111111111111111111111111111111111111111111111111111111111111111111111111111111111111111111110001111111111111111111111111111111111110100000000101111111111111111111111111111111111111101111111111111111111111111111111111111111111111111111111111111111111111111111111111111111111111111111111111111001101111111111111111111111111111111111111000000001111111111111111111111111111111111111101101111111111111111111111111111111111111111111111111111111111111111111111111111111111111111111111111111111111111001111111111111111111111111111111111111101000000000111111111111111111111111111111111111100001111111111111111111111111111111111111111111111111111111111111111111111111111111111111111111111111111111111100111111111111111111111111111111111111101000000000001111111111111111111111111111111111111110111111111111111111111111111111111111111111111111111111111111111111111111111111111111111111111111111111111110110111111111111111101111111111111111111000000011000000111111111111111111111111111111111111010011111111111111111111111111111111111111111111111111111111111111111111111111111111111111111111111111111111000011111111101111011111111111111111111010000011010000000011111111111111111111111111111111110011011111111111111111111111111111111111111111111111111111111111111111111111111111111111111111111111111111110001111111111111011010101111111111111110000011111111000000111111111111111110111111111111111111001111111111111111111111111111111111111111111111111111111111111111111111111111111111111111111111111111111100111111111111111101010111111111111111100000111111111100000111111111111111111011111111111111110011111111111111111111111111111111111111111111111111111111111111111111111111111111111111111111111111111110101111111111111111001011001000111111000000011111111111000000011111111011111111111111111111111100001111111111111111111111111111111111111111111111111111111111111111111111111111111111111111111111111111100011111111111111101011111100110011101000011111111111110000001111111111111111111111111111111111000111111111111111111111111111111111111111111111111111111111111111111111111111111111111111111111111111110001011111111111110111111111111111100000000011111111111111000000001111111111111101111111111111111100011111111111111111111111111111111111111111111111111111111111111111111111111111111111111111111111111101001111111111111111011111111111100000000011111111111111111000000010111111111111011111111111111111001111111111111111111111111111111111111111111111111111111111111111111111111111111111111111111111111111000111111111111110111111111111110100000000111111111111111100000000111111111111111111111111111111101000111111111111111111111111111111111111111111111111111111111111111111111111111111111111111111111111100011111111111111101111111111111110000000001111111111111111110000000111111111111111011111111111111100101111111111111111111111111111111111111111111111111111111111111111111111111111111111111111111111111000111111111111111100111111111111010000001000111111111111111000000001011111111111111011111111111111000111111111111111111111111111111111111111111111111111111111111111111111111111111111111111111111111110001111111111111111111111111111110000001010010111111111101010100000001111111111111101111111111111111100111111111111111111111111111111111111111111111111111111111111111111111111111111111111111111111110101011111111111110100111111111111000000011111000001111111100111101000000111111111111001111111111111110000111111111111111111111111111111111111111111111111111111111111111111111111111111111111111111111100001111111111111110111111111111100000001111101001111111000010111110000001111111111111010111111111111110011111111111111111111111111111111111111111111111111111111111111111111111111111111111111111111111100101111101111100010111111111111000000011111111000000010111111111000000001111111111101010110111111111000101111111111111111111111111111111111111111111111111111111111111111111111111111111111111111111110001011110101001000011111111111100000001111111110000011000111111111100000001111101011000000101101111110010111111111111111111111111111111111111111111111111111111111111111111111111111111111111111111111100000000000000000000000000000101000000111111111111100000011111111111100000010010000000000000000000000000000011111111111111111111111111111111111111111111111111111111111111111111111111111111111111111110000000000000000000000000000001000000000111111111110000000111111111111000000100000000000000000000000000000000111111111111111111111111111111111111111111111111111111111111111111111111111111111111111100000000000000000000000000000000000000000011111111111000000001011111111000000000000000000000000000000000000000010101011111111111111111111111111111111111111111111111111111111111111111111111111111100000000000000000000100000000000000000000000000111111111110000100001111111111000000000000000000000000001000000100000000000101111111111111111111111111111111111111111111111111111111111111111111111111100110000000000011011010101000000000000000000000000001111110000010100000111111001000000000000000001000011001101010000000000000010111111111111111111111111111111111111111111111111111111111111111111111010001000010000001111111111110101001100000000000000000011111110000010000001111100000000000000000011010010001111111101010000010000000011011111111111111111111111111111111111111111111111111111111111111101000000111101000011111111111110101111111100000000000000001010000011111100001000000000000000000101111111010111111111111000001100000000010111111111111111111111111111111111111111111111111111111111111010101000011111000001111111111111101111111111000000000000000000010001111110000000000000000000000001111111100011111111111110001101101100000010111111111111111111111111111111111111111111101111111111111100000001111111111000001111111111100001111111110000000000000000000000011111110000000000000000000000111111111110011111111111100001111111111100000011011111111111101111111111111111111111111111111111111011000010111111111111000011111111111100111111111100000000000000000000001111111110000000000000000000001111111111001111111111111000101111111101000000001011111111111111111111111111111111111110111111111110001010111111111111100001111111111111001111111111000000000000000000000001111110000000000000001000000001111111111000111111111111000011111111111111001011011111111110111111111111111111111111111111111101010011111111111111111000011111111111110011111111110000000110100000000000011111000000000000100110000000011111111110011111111111100000111111111111111010000011111110111111111111111111111111111011111111101010111111111111111100000011111111111100111111111000000000111100000000000000111000000000000111110000000011111111000111111111111100001111111111111111011010101111111011111111111111111111111111111110100101111111111111111111000001111111111110001111111110000000111111100000000000000000000000000011111010000000111111111000111111111111000011111111111111111110000011111110111111111111111111111111110111110101111111111111111111111000001111111111010001111110110000001111111100000000000000000000000000111111000000010111101100001011111111110000111111111111111111111101010110111111111111111111111111111111101011111111111111111111111100000111111110110000100010110000000001111110000000000000000000000000011111110000000000101010000000101111111000001111111111111111111111010010111111111111111111111111111101010101111111111111111111111111100000111100100000000000100000000000101111000000000000000000000000000011111110000000000000000000000000001110000001111111111111111111111100000010111111111111111111111111101011011111111111111111111111110000001000100100000000000000000000000101111000000000000000000000000000011100000000000000000000000010100011000000111111111111111111111111101101001111111111111111111111111101011111111111111011111111111100000000100010101000011000000000000000110000000000000000000000000000000010000000000000000101000000000110010000001111111111111111111111111101000011111111111111111111111111001111111111111110111111111111100000010100110100001011001000000000000000000010010000000000000010000000000000000000000010110000011010010010000011111111111111111111111111110001111111111111111111111110000111111111111111111111111110100000000101111111100001111101000000000000000000011100000000000000110000000000000000000011111100000011111110100000001111111111111111111111111110100011111111111111111111110011111111111111110111111110110000000011111111110100111111100000000000000000001011100000000000011000000000000000000001111111000001111111110100001010111111111111111111111111000000111111111111111111111010101111111111111111111111011111000000111111111110001111111100000000000000000000100000000000000011000000000000000000011111111001111111111110000001101101111111111111111111111101010011111111111111111110110111111111111111111111101101110000001111111111100001111110000000001100000000000000000000000000000000000000000000000011111100000111111111100000011010111011111111111111111111011101011111111111111111111110111111111111111101010111111110000010111111110100111111100000000011010000000000000000000000000000000001111000000000111111000011111111110000011111110011111111111111111111001111101011111111111111111111010111111111111101101111111111010000111111111110000110110000000000001100000000000000000000000000000000101100000000001010100000111111111000000011111111111101111111111111111011111000111111111111111111111011111111111111100101111111111000000011111111000000000000000000001010000000000000000000000000000000000011000000000001000100000011111111000000111111111101001111111111111101011111110011111111111111111101011111111111111001111111111110000000111111000000000000000000000000100000000000000000000000000000000000010000000000000000000000110111100000011111111111101101111111111111101111111101011111111111111111101111111111110011101111111111110000001100110000000000000000000000000000000000000000000000000000000000000000000000000000000000000100011000001011111111111101111111111111110101111111101011111111111111111101111111111111101111111111111110000000100000000000000000000000000000000000000000000000000000000000000000000000000000000000000000001100000001111111111111110111111111111101111111111100111111111111111110111111111111111010111111111110000000000000000000000000000000000000000000000000000000000000000000000000000000000000000000000000000000000000101111111111100111111111111110101111111111101111111111111111101111111111111111011111111111110000000000000000000000000000000000000000000000000000000000000000000000000000000000000000000000000000000000001111111111111111111111111111010011111111111101111111111111110100111111111111111011111111111100000000000000000000000000000000000000000000000000000000000000000000000000000000000000000000000000000000000001111111111010111111111111111011011111111111010111111111111110101111111111111101011111111110000000000000000000000000000000000000000000000000000000000000000000000000000000000000000000000000000000000000000111111111111111111111111101011111111111111101111111111111110101111111111111101011111110100000000000000000000000000100000000000000000000000000000000000000000000000000000000000000000000000000000000000010111111110011111111111111101111111111111111101111111111111110011111111111111101111110000000000000000011101000000110000000000000000000000000000000000000000000000000000000000101000000101100000000000000000011111101111111111111110111111111111111111101111111111111001011111111111111010110100000000000000011111111000000110000000000000000000000000000000000000000000000000000000001110000000111111000000000000001111100101111111111111100011111111111111111111111111111110010111111111111111001100000000000000001111111100000011100000000000000000000000000000000000000000000000000000000001000000111111100000000000000000011111111111111111110011111111111111111110111111111111110011111111111111110101000000000000000000111111100000000000000000000000000000000000000000000000000000000000000000000000000111111000000000000000000000101111111111111110011111111111111111111111111111111110011111111111111000000000000000000000001111111000000000000000000000000000000000000000000000000000000000000000000000000011111110000000000000000000001111111111111111000111111111111111111111111111111111000111111111111111100000001011110000000011011010000000000000000000000000000000000000000000000000000000000000000000000000001111000000001011100000000001111111111111001101111111111111111111111111111111111000011111111111110000000011111110000000100101000000000000000000000000000000000000000000000000000000000000000000000000000010000000000011111000000000011111111111111001111111111111111111111111111111111111100111111111110000000001111111100000000000000000000000000000000000000000000000000000000000000000000000000000000000000000010000000001111111110000000011111111111100101111111111111111111111111111111111100001111111111000000000111111111000000000000000000000000000000000000000000000000000000000000000000000000000000000000000000000000000011111111110000000011111111111000111111111111111111111111111111111111110101111111111000000111111111111100000000000000000000000000000000000000000000000000000000000000000000000000000000000000000000000001111111111101000000011111111101011111111111111111111111111111111111111100111111111000000000001111111111000000000000011000000000000000000000000000000000000000000000000000000000000000000011000000000000111111111110000000000011111111000011111111111111111111111111111111111110000001111100000010110011111111110000000000001111000000000000000000000000000000000000000000000000000000000000000001111000000000000011111111110010000000011111100011111111111111111111111111111111111111110000111110000001101000011111111100000000000011101000000000000000000000000000000000000000000000000000000000000000001100000000000000111111111000111100000111110000111111111111111111111111111111111111111111000111010000111111001011111110000000000000000000000000000000000000000000000000000000000000000000000000000000000010000000000000001111111001001111100000111100001111111111111111111111111111111111111111100000110000101111111010111110000000000000000000000000000000000000000000000000000000000000000000000000000000000000100000000000000010111111000111110000000010100111111111111111111111111111111111111111111110010000000111111110000011010000100000000000000000000000000000000000000000000000000000000000000000000000000000000000000000001000001011000011111111000010000101111111111111111111111111111111111111111111000000000111111111100010101000101110000000000000000000000000000000000000000000000000000000000000000000000000000000000000000110000001010001111111111000000000011111111111111111111111111111111111111111111100000001111111111110000000001111000000000000000000000000000000000000000000000000000000000000000000000000000000000000000101111100010000011111111111100000011111111111111111111111111111111111111111111111000001111111111111001000000111111100000000000000000000000000000000000000000000000000000000000000000000000000000000000001111111000000001111111111111000001111111111111111111111111111111111111111111111110000001111111111111100000111111111000000000000000000000000000000000000000000000000000000000000000000000000000000000000111111111000000011111111111110000001111111111111111111111111111111111111111111111100000111111111111111000000111111110000000000000000000000000000000000000000000000000000000000000000000000000000000000001111111100000001111111111111000000001111111111111111111111111111111111111111111111000000011111111111100000000111111000000000000000000000000000000000000000000000000000000000000000000000000000000000000001111111100000001111111111101100000111111111111111111111111111111111111111111111101000001111111111110000000010111010000000000000000000000000000000000000000000000000000000000000000000000000000000000000010111100000000011111111110100000001011111111111111111111111111111111111111111110100000000111111111101101100000010000000000000000000000000000000000000000000000000000000000000000000000000000000000000000001000000101110001111111110000000000111111111111111111111111111111111111111111100001000001111111111000111010000000000000000000000000000000000000000000000000000000000000000000000000000000000000000000000010000000111000111111101000010000011111111111111111111111111111111111111111111001111000000011111010111111100000000000000000000000000000000000000000000000000000000000000000000000000000000000001000000000000000111111010101111100000111010001111111111111111111111111111111111111111100011111000001111110011111111010000000000000000000000000000000000000000000000000000000000000000000000000000000000000000000000000111111110001011110000001111000011111111111111111111111111111111111111110100011111000000101111011111111000000000000011101000000000000000000000000000000000000000000000000000000000000000011010000000000000111111111100110000001111111000011111111111111111111111111111111111111100101111101000000010111111111111000000000000010000000000000000000000000000000000000000000000000000000000000000000010000000000000011111111111001000000011111110001111111111111111111111111111111111111110100111111110000000110111111111110000000000000100000000000000000000000000000000000000000000000000000000000000000000110000000000000111111111101000000001111111110000111111111111111111111111111111111111100111111111110000000000111111111000000000000000000000000000000000000000000000000000000000000000000000000000000000000000000000000001111111111000000001011111111110001111111111111111111111111111111111111000111111111111000000111111111010000000000000000000000000000000000000000000000000000000000000000000000000000000000000000000000000000111111110000000011111111111100011111111111111111111111111111111111100101111111111110000000001111111000000000001000000000000000000000000000000000000000000000000000000000000000000000000000001000000000011111111000000000111111111111001111111111111111111111111111111111111100111111111111111000000001011100000000011111000000000000000000000000000000000000000000000000000000000000000000000000000011111000000011111000000000111111111111111000011111111111111111111111111111111100011111111111111100000000001100000000001111101000000000000000000000000000000000000000000000000000000000000000000000000011111100000000010100000000001111111111111110010111111111111111111111111111111111010111111111111111111000000000010000000111111101000000000000000000000000000000000000000000000000000000000000000000000000001111100000000000000000001010111111111111100001111111111111111111111111111111111011111111111111111000100000000000000010111111100000010000000000000000000000000000000000000000000000000000000001100000001111111100000000000000001011111111111111111010111111111111111111111111111111111101011111111111111111111010000000000000000111100000000110000000000000000000000000000000000000000000000000000000000100000001111100000000000000001011100111111111111111000011111111111111111111111111111111011111111111111111111111000000000000000111111100000011100000000000000000000000000000000000000000000000000000000011100000100111100000000000000101111101111111111111111011111111111111111111111111111111101011111111111111111111111100000000000000001001000000011000000000000000000000000000000000000000000000000000000000000000000001000000000000000001111111101111111111111111001111111111111111111111111111111001111111111111111011111111100000000000000000000000000000000000000000000000000000000000000000000000000000000000000000000000000000000000000010111111111111111111111111100111111111111111111111111111111101111111111111111111111111111110000000000000000000000000000000000000000000000000000000000000000000000000000000000000000000000000000000000000011111111110011111111111111110101111111111111111111111111110101011111111111111111111111111110000000000000000000000000000000000000000000000000000000000000000000000000000000000000000000000000000000000011111111111110111111111111111101111111111111111111111111111111111111111111111111111111111110000000000000000000000000000000000000000000000000000000000000000000000000000000000000000000000000000000000000111111111111111111111111111111001111111111110111111111111111101111111111111111111111111111110000000000000000000000000000000000000000000000000000000000000000000000000000000000000000000000000000001000000111111111111111111111111111100011111111111101111111111111111101111111111111111111111111111000000001010000000000000000000000000000000000000000000000000000000000000000000000000000000000000000001100000001111111111111011111111111111110111111111101111111111111111110111111111111111011111111111111000001111101000000000000000000000000000000000000000000000000000000000000000000000000000000000000101111110000101111111111011111111111111111001111111111011111111111111111101111111111111111111111111111100000001111111100000000000000000000000000000000000000000000000000000000000000000000000000000000001111111000000111111111111011111111111111110011111111011111111111111111111001111111111111110111111111111000000111111111000001001000000000001010000000000000000000000000000000000110000000000000100100001011111111100001011111111110011111111111111100111111011111111111111111111101111111111111111111110111111110000001111111111000011011010000000001010000000000000000000000000000000000101000000000111110000011111111100000011111111111011111111111111111110111101101111111111111111111110111111111111111110111010111000000111111111100000111111000000000101000000000000000000000000000000000001100000000010111110000011111111100000101100110111111111111111111110101001011011111111111111101110111111111111111111111111010110000001011111111110001111111000000000000000000000000000000000000000000000000000000000011111100001111111111100000111110011111111111111111111110101101111111111111111111111011111111111111111111111110101100000011111111110000111111100000000000000000000011000000000000010000000000000000000001111111100011111111101000001110111111111111111111111111010010101111111111111111111011001111111111111111111111111110000000111111111110001111110100000000000000000001110000000000001101100000000000000000001111110000011111111100000000011111111111111111111111111100101111111111111111111111000111111111111111111111111111000000001111111111000001111110000000000000000000111100000000000001100000000000000000000011111010000011101111000000011111111111111111111111111100000111111111111111111111110010111111111111111111111111111100000000000010000000100000000000000000010000000010000000000000001000000000000000000000000010000000000000000000001011111111111111111111111111101101111111111111111111111100101111111111111111111111111111000000010000010000000010000000000000001101000000100000000000000000000000100000000000000000000000001000000000000011111111111111111111111111010001011111111111111111111111110101011111111111111111111111111000010011010000000000000000000000000001110000000000000000000000000000111111000000000000000000000000001001100000111111111111111111111111110001101111111111111111111111111110101010111111111111111111111100000111110101000000000000000000000011111100000000000000000000000000001111110000000000000000000000001101111000001111111111111111111111100000101011111111111111111111111111011101011111111111111111111111100000111111111100000011010100000000011111110000000000000000000000000011111100000000001010100000001011111111000011111111111111111111101011010111111111111111111111111111111111110010111111111111111111110000011111111110100001111111000000000111110000000000000000000000000000111111000000001111111100001111111111100000011111111111111111110010111111101111111111111111111111111011111101010011111111111111111110000011111111111100111111111100000010111110000000000001010000000000000111110000000001111111000011111111110100001111111111111111110010000111101011111111111111111111111111111111111010110111111111111111000001111111111100001111111110000000001100000000000000011100000000000011111000000001111111110000111111111110000001111111111111101010011111111111111111111111111111111111111111111111010010111111111111111100001111111111110001111111110000000001000000000000011111110000000000000010000000111111111110001111111111110001111111111111111100001011111111101111111111111111111111111111111111111011001011111111111100000011111111111100011111111100000000000000000000000111111100000000000000000000000111111111001111111111111000001111111111110100000011111111111111111111111111111111111111111111111111101100001111111111110001111111111111001111111111000000000000000000000011111111000000000000000000000011111111110001111111111110000011111111110100010111111111111101011111111111111111111111111111111111111101010001001111111000001111111111110001111111110000000000000000000000011111110000000000000000000000011111111000011111111111100001111111111000000011111111111111110111111111111111111111111111111111111111111011001010001011000011111111111101101111111100000000000000000001001101111100001010000000000000001011111110110111111111111100001110110000010111111111111111111111111111111111111111111110111111111111111111101000000010000001111111111111010011111000000000000000000101100000011110001011110000000000000001111111100001111111111110000010100000000011111111111111111100111111111111111111111111111111111111111111111111010101010000001101111111110011001001000000000000000001111100000010100001111111000000000000000000001000101110111100100000000100010101111111111111111111111111111111111111111111111111111111111111111111111100101000000000000000101000000000000000000000000111111111100000000000111111110000000000000000000000000001001100100000000000010011111111111111111111111011111111111111111111111111111111111111111111111111111101000000000100000000000000000000000000000000111111111110000000011111111111000000000000000000000000000000000000000000001011111111111111111111111111111111111111111111111111111111111111111111111111111111111000000000000000000000000000000001000000001111111111110000001111111111100000000100000000000000000000000000000001010111111111111111111111111111111111111111111111111111111111111111111111111111111111111111100001010000000000000000000001010000000111111111111000000011111111111000000001110010000000000000000000000000011111111111111111111111111111111111111111111111111111111111111111111111111111111111111111111000010100100000000000000110111010000000011111111010000001111111111110000000011110110010000000000001000000000111111111111111111111111111111111111111111111111111111111111111111111111111111111111111111110100011111111111010110111111111100000001111111110000100000011111110000000111111111111001011111111111110000011111111111111111111111111111111111111111111111111111111111111111111111111111111111111111111100001111111111111101111111111111100000001111110100001001100111111100000010111111111111010111111111111100011111111111111111111111111111111111111111111111111111111111111111111111111111111111111111111111110001111111111111110111111111111100000000011100001011110000011110000000011111111111101011111111111111100001111111111111111111111111111111111111111111111111111111111111111111111111111111111111111111111000011111111111111110111111111111100000001000000111111111101000100000001111111111111101111111111111110000111111111111111111111111111111111111111111111111111111111111111111111111111111111111111111111111000111111111111111101111111111111000000001100101111111111001010000000111111111111110111111111111111100011111111111111111111111111111111111111111111111111111111111111111111111111111111111111111111111110000111111111111111101111111111111000000000011111111111111110000000011111111111111101111111111111111000111111111111111111111111111111111111111111111111111111111111111111111111111111111111111111111111110011111111111111101111111111111101000000001111111111111111000000000111111111111111111111111111111000001111111111111111111111111111111111111111111111111111111111111111111111111111111111111111111111111000001111111111111111111111111110100000000011111111111111101000000010111111111110101111111111111110101011111111111111111111111111111111111111111111111111111111111111111111111111111111111111111111111111101011111111111111110111111111111010000000011111111111111110000000101011111111111111111111111111110000111111111111111111111111111111111111111111111111111111111111111111111111111111111111111111111111111000111111111111111001111111001101010000000011111111111110000001011011111101111111111111111111111000111111111111111111111111111111111111111111111111111111111111111111111111111111111111111111111111111100000111111111111111101110111101101110000000011111111110000000111111101111101110111111111111111100001111111111111111111111111111111111111111111111111111111111111111111111111111111111111111111111111111110001111111111111101111010011111111111000000011111111000000001111111111111111101011111111111111000011111111111111111111111111111111111111111111111111111111111111111111111111111111111111111111111111111110011111111111111111010111111111111111000000011111111000001111111111110111101111111111111111111001111111111111111111111111111111111111111111111111111111111111111111111111111111111111111111111111111111000101111111111111110011111111111111111000000011110000000111111111111111111111111101111111111100011111111111111111111111111111111111111111111111111111111111111111111111111111111111111111111111111111111010111111111111111111111111111111111110100000110100001011111111111111111111111111111111111100101111111111111111111111111111111111111111111111111111111111111111111111111111111111111111111111111111111110000111111111111111111111111111111111111011000000000001111111111111111111111111111111111111000011111111111111111111111111111111111111111111111111111111111111111111111111111111111111111111111111111111111010111111111111111111111111111111111111100000000001111111111111111111111111111111111111110001111111111111111111111111111111111111111111111111111111111111111111111111111111111111111111111111111111111110001111111111111111111111111111111111111000000000111111111111111111111111111111111111111100111111111111111111111111111111111111111111111111111111111111111111111111111111111111111111111111111111111111001101111111111111111111111111111111111101000000000001111111111111111111111111111111111100000111111111111111111111111111111111111111111111111111111111111111111111111111111111111111111111111111111111111100101111111111111111111111111111111111010000000000111111111111111111111111111111111111010111111111111111111111111111111111111111111111111111111111111111111111111111111111111111111111111111111111111111000011111111111111111111111111111110100000110010000001111111111111111111111111111111110011111111111111111111111111111111111111111111111111111111111111111111111111111111111111111111111111111111111111111100111111111111111111111111111110110000001111100000111111111111111111111111111111111001111111111111111111111111111111111111111111111111111111111111111111111111111111111111111111111111111111111111111110100011111111111111111111111110100000011111111110000000001111111111111111111111111101001111111111111111111111111111111111111111111111111111111111111111111111111111111111111111111111111111111111111111110101111111111111111111111111000000111111111111110000000001111111111111111111111110010111111111111111111111111111111111111111111111111111111111111111111111111111111111111111111111111111111111111111111111000111111111111111111101000100100111111111111111101000101101111111111111111111101001111111111111111111111111111111111111111111111111111111111111111111111111111111111111111111111111111111111111111111101011111111111111111010000100111111111111111111111111010000101111111111111111110001111111111111111111111111111111111111111111111111111111111111111111111111111111111111111111111111111111111111111111111100010111111111101101001000101111111111111111111111110001000000101111111111111101011111111111111111111111111111111111111111111111111111111111111111111111111111111111111111111111111111111111111111111111110111101111001100001101111111111111111111111111111111101101010010011110111010101111111111111111111111111111111111111111111111111111111111111111111111111111111111111111111111111111111111111111111111110000010110010100101011111111111111111111111111111111111111111010001000111011000111111111111111111111111111111111111111111111111111111111111111111111111111111111111111111111111111111111111111111111111101000001010101011011111111111111111111111111111111111111111111101010101111010100101111111011111111111111111111111111111111111111111111111111111111111111111111111111111111111111111111111011111100101001101010001111111111111111111111111111111111111111111111111111111111111110000000010110001111111111111111111111111111111111111111111111111111111111111111111111111111111111111111111111111110111111111011101110010001111111111111111111111111111111111111111111111111111111111111110100010010111111011011111111111111111111111111111111111111111111111111111111111111111111111111111111111111111111111111111111111111111011111111111111111111111111111111111111111111111111111111111111111101010111111111111111111111111111111111111111111111111111111111111111111111111111111111111111111111111111111111111111111111111111111111110111111111111111111111111111111111111111111111111111111111111111011111111111111111111111111111111111111111111111111111111111111111111111111111111111111111111111111111111111111111111111111111111111111010111111111111111111111111111111111111111111111111111111111111001011111111111111111111111111111111111111111111111111111111111111111111111111111111111111111111111111111111111111111111111111111111111111010011111111111111111111111111111111111111111111111111111111111111111111111111111111111111111111111111111111111111111111111111111111111111111111111111111111111111111111111111111111111111111111111111111010111111111111111111111111111111111111111111111111111111111000111111111111111111111111111111111111111111111111111111111111111111111111111111111111111111111111111111111111111111111111111111111111111111101111111111111111111111111111111111111111111111111111111100111111111111111111111111111111111111111111111111111111111111111111111111111111111111111111111111111111111111111111111111111111111111111111111101011111111111111111111111111111111111111111111111111111111111111111111111111111111111111111111111111111111111111111111111111111111111111111111111111111111111111111111111111111111111111111111111111110100111111111111111111111111111111111111111111111111111001111111111111111111111111111111111111111111111111111111111111111111111111111111111111111111111111111111111111111111111111111111111111111111111111110111111111111111111111111111111111111111111111111111111111111111111111111111111111111111111111111111111111111111111111111111111111111111111111111111111111111111111111111111111111111111111111111111111011111111111111111111111111111111111111111111111111101111111111111111111111111111111111111111111111111111111111111111111111111111111111111111111111111111111111111111111111111111111111111111111111111111101101111111111111111111111111111111111111111110111111111111111111111111111111111111111111111111111111111111111111111111111111111111111111111111111111111111111111111111111111111111111111111111111111111111111111111111111111111111111111111111111111111111111111111111111111111111111111111111111111111111111111111111111111111111111111111111111111111111111111111111111111111111111111111111111111111111111111111111111111111111111111111111111111111111111111111111111111111111111111111111111111111111111111111111111111111111111111111111111111